<svg width="26" height="10" viewBox="0 0 26 10" fill="none" xmlns="http://www.w3.org/2000/svg">
<path d="M3.07617 5.81836H0.216797V4.93359H3.07617V5.81836ZM9.61523 9H4.02539V8.2207L6.97852 4.93945C7.41602 4.44336 7.7168 4.04102 7.88086 3.73242C8.04883 3.41992 8.13281 3.09766 8.13281 2.76562C8.13281 2.32031 7.99805 1.95508 7.72852 1.66992C7.45898 1.38477 7.09961 1.24219 6.65039 1.24219C6.11133 1.24219 5.69141 1.39648 5.39062 1.70508C5.09375 2.00977 4.94531 2.43555 4.94531 2.98242H3.86133C3.86133 2.19727 4.11328 1.5625 4.61719 1.07812C5.125 0.59375 5.80273 0.351562 6.65039 0.351562C7.44336 0.351562 8.07031 0.560547 8.53125 0.978516C8.99219 1.39258 9.22266 1.94531 9.22266 2.63672C9.22266 3.47656 8.6875 4.47656 7.61719 5.63672L5.33203 8.11523H9.61523V9ZM11.2617 4.72266L11.6953 0.46875H16.0664V1.4707H12.6152L12.3574 3.79688C12.7754 3.55078 13.25 3.42773 13.7812 3.42773C14.5586 3.42773 15.1758 3.68555 15.6328 4.20117C16.0898 4.71289 16.3184 5.40625 16.3184 6.28125C16.3184 7.16016 16.0801 7.85352 15.6035 8.36133C15.1309 8.86523 14.4688 9.11719 13.6172 9.11719C12.8633 9.11719 12.248 8.9082 11.7715 8.49023C11.2949 8.07227 11.0234 7.49414 10.957 6.75586H11.9824C12.0488 7.24414 12.2227 7.61328 12.5039 7.86328C12.7852 8.10938 13.1562 8.23242 13.6172 8.23242C14.1211 8.23242 14.5156 8.06055 14.8008 7.7168C15.0898 7.37305 15.2344 6.89844 15.2344 6.29297C15.2344 5.72266 15.0781 5.26562 14.7656 4.92188C14.457 4.57422 14.0449 4.40039 13.5293 4.40039C13.0566 4.40039 12.6855 4.50391 12.416 4.71094L12.1289 4.94531L11.2617 4.72266ZM17.4082 2.10938C17.4082 1.59766 17.5703 1.17578 17.8945 0.84375C18.2227 0.511719 18.6426 0.345703 19.1543 0.345703C19.6738 0.345703 20.0938 0.513672 20.4141 0.849609C20.7383 1.18164 20.9004 1.61328 20.9004 2.14453V2.56055C20.9004 3.07617 20.7363 3.49805 20.4082 3.82617C20.084 4.15039 19.6699 4.3125 19.166 4.3125C18.6582 4.3125 18.2383 4.15039 17.9062 3.82617C17.5742 3.49805 17.4082 3.0625 17.4082 2.51953V2.10938ZM18.2168 2.56055C18.2168 2.86523 18.3027 3.11719 18.4746 3.31641C18.6465 3.51172 18.877 3.60938 19.166 3.60938C19.4434 3.60938 19.666 3.51367 19.834 3.32227C20.0059 3.13086 20.0918 2.86914 20.0918 2.53711V2.10938C20.0918 1.80469 20.0078 1.55273 19.8398 1.35352C19.6719 1.1543 19.4434 1.05469 19.1543 1.05469C18.8652 1.05469 18.6367 1.1543 18.4688 1.35352C18.3008 1.55273 18.2168 1.8125 18.2168 2.13281V2.56055ZM21.5625 6.9082C21.5625 6.39648 21.7246 5.97656 22.0488 5.64844C22.377 5.31641 22.7969 5.15039 23.3086 5.15039C23.8203 5.15039 24.2402 5.31445 24.5684 5.64258C24.8965 5.9707 25.0605 6.40625 25.0605 6.94922V7.36523C25.0605 7.87695 24.8965 8.29883 24.5684 8.63086C24.2441 8.95898 23.8281 9.12305 23.3203 9.12305C22.8125 9.12305 22.3926 8.96094 22.0605 8.63672C21.7285 8.30859 21.5625 7.87305 21.5625 7.33008V6.9082ZM22.3711 7.36523C22.3711 7.67383 22.457 7.92773 22.6289 8.12695C22.8008 8.32227 23.0312 8.41992 23.3203 8.41992C23.6016 8.41992 23.8262 8.32422 23.9941 8.13281C24.1621 7.9375 24.2461 7.67383 24.2461 7.3418V6.9082C24.2461 6.59961 24.1602 6.34766 23.9883 6.15234C23.8203 5.95703 23.5938 5.85938 23.3086 5.85938C23.0312 5.85938 22.8047 5.95703 22.6289 6.15234C22.457 6.34375 22.3711 6.60352 22.3711 6.93164V7.36523ZM19.4121 8.35547L18.7969 7.96875L22.9629 1.30078L23.5781 1.6875L19.4121 8.35547Z" fill="black"/>
</svg>
